<svg xmlns="http://www.w3.org/2000/svg" viewBox="0 0 1831.21 1833.01"><defs><style>.cls-1{fill:#caddff;}.cls-2{fill:#99b9ff;}.cls-3{fill:#5479f7;}.cls-4{fill:#fff;}</style></defs><g id="Layer_2" data-name="Layer 2"><g id="Illustration"><g id="Internal_marketing" data-name="Internal marketing"><path class="cls-1" d="M1572.59,818.72c-62.82-179.72,288.48-345,256.57-528.58C1794.63,91.47,1309.88-49.49,899.9,18.37c-123,20.35-586.2,97-796.5,513.68C-105.45,945.84,19.51,1504,355.76,1720.3c188.47,121.24,404.45,110.26,628.24,98.89,220.21-11.2,452.15-3.61,626.83-161.44,183.28-165.6,274.24-483.3,173.08-652.53C1717.64,894.35,1606.36,915.35,1572.59,818.72Z"/><circle class="cls-2" cx="988.33" cy="738.04" r="633.75"/><circle class="cls-3" cx="910.26" cy="738.04" r="633.75"/><circle class="cls-4" cx="910.26" cy="738.04" r="422.5" transform="translate(-255.26 859.81) rotate(-45)"/><circle class="cls-3" cx="910.26" cy="738.04" r="211.25" transform="translate(-255.26 859.81) rotate(-45)"/><path class="cls-4" d="M891.82,747.37l99.52-111.52,14.88,14.88L894.71,750.26A2,2,0,0,1,891.82,747.37Z"/><path d="M893.34,754.11a5.38,5.38,0,0,1-4-9l99.52-111.51a3.35,3.35,0,0,1,2.38-1.11,3.14,3.14,0,0,1,2.43,1l14.88,14.88a3.3,3.3,0,0,1-.14,4.81L896.91,752.73A5.36,5.36,0,0,1,893.34,754.11Zm.95-4.54Zm-2.47-2.2h0Zm99.66-106.7L909.09,733l92.31-82.38Z"/><path class="cls-4" d="M1002.18,588.77h29.51a0,0,0,0,1,0,0v61.85a10.88,10.88,0,0,1-10.88,10.88h-7.76a10.88,10.88,0,0,1-10.88-10.88V588.77A0,0,0,0,1,1002.18,588.77Z" transform="translate(739.9 -535.99) rotate(45)"/><path d="M1001.66,660.09a14.11,14.11,0,0,1-10-4.15l-5.48-5.49a14.18,14.18,0,0,1,0-20.06l43.73-43.74a3.31,3.31,0,0,1,4.68,0l20.87,20.87a3.31,3.31,0,0,1,0,4.68l-43.73,43.74A14.1,14.1,0,0,1,1001.66,660.09Zm30.55-66.42-41.39,41.4a7.57,7.57,0,0,0,0,10.7l5.48,5.49h0a7.74,7.74,0,0,0,10.7,0l41.39-41.4Z"/><path class="cls-4" d="M1025.74,625.74l-9.41-9.41a18.64,18.64,0,0,1,0-26.36l487.45-487.46a18.65,18.65,0,0,1,26.37,0l9.41,9.41a18.65,18.65,0,0,1,0,26.37L1052.11,625.74A18.65,18.65,0,0,1,1025.74,625.74Z"/><path d="M1038.92,634.5a21.88,21.88,0,0,1-15.52-6.42l-9.41-9.41a22,22,0,0,1,0-31l487.45-487.46a22,22,0,0,1,31,0l9.41,9.41a22,22,0,0,1,0,31.05L1054.45,628.08A21.9,21.9,0,0,1,1038.92,634.5ZM1517,100.36a15.27,15.27,0,0,0-10.85,4.49L1018.67,592.31a15.34,15.34,0,0,0,0,21.68l9.41,9.41a15.35,15.35,0,0,0,21.69,0L1537.22,136a15.35,15.35,0,0,0,0-21.69l-9.41-9.41A15.27,15.27,0,0,0,1517,100.36Z"/><path class="cls-3" d="M1359.38,246.91,1344.57,175A86.09,86.09,0,0,1,1368,96.76l91.7-91.71a5.93,5.93,0,0,1,10,3l21.94,106.58Z"/><path d="M1359.38,250.22a3.08,3.08,0,0,1-1-.14,3.31,3.31,0,0,1-2.29-2.5l-14.81-71.94a89.11,89.11,0,0,1,24.35-81.22l91.7-91.71A9.23,9.23,0,0,1,1473,7.38L1494.9,114a3.29,3.29,0,0,1-.9,3L1361.72,249.25A3.3,3.3,0,0,1,1359.38,250.22Zm104.5-243.6a2.54,2.54,0,0,0-1.82.77l-91.7,91.71a82.53,82.53,0,0,0-22.55,75.2l13.57,65.93,126.68-126.68L1466.48,8.71a2.57,2.57,0,0,0-1.81-2A3,3,0,0,0,1463.88,6.62Z"/><path class="cls-3" d="M1395.16,282.69l71.94,14.81a86.07,86.07,0,0,0,78.22-23.44l91.7-91.71a5.93,5.93,0,0,0-3-10l-106.59-21.94Z"/><path d="M1484.56,302.59a90.12,90.12,0,0,1-18.13-1.85l-71.94-14.81a3.31,3.31,0,0,1-1.67-5.58L1525.1,148.07a3.29,3.29,0,0,1,3-.9l106.58,21.94a9.24,9.24,0,0,1,4.67,15.58l-91.7,91.71A89.15,89.15,0,0,1,1484.56,302.59Zm-82.72-21.9,65.93,13.57A82.58,82.58,0,0,0,1543,271.72l91.7-91.71a2.62,2.62,0,0,0-1.32-4.42L1528.52,154Z"/><path class="cls-4" d="M1512.49,187.71l86.65,16.22Z"/><path d="M1599.14,207.24a3.23,3.23,0,0,1-.61-.06L1511.88,191a3.31,3.31,0,0,1,1.22-6.51l86.65,16.21a3.31,3.31,0,0,1-.61,6.57Z"/><path class="cls-4" d="M1477.28,222.93l86.64,16.21Z"/><path d="M1563.92,242.45a3.2,3.2,0,0,1-.61,0l-86.64-16.21a3.31,3.31,0,1,1,1.22-6.51l86.64,16.21a3.31,3.31,0,0,1-.61,6.56Z"/><path class="cls-4" d="M1345.36,278.84l17.87,17.87Z"/><path d="M1363.23,300a3.3,3.3,0,0,1-2.34-1L1343,281.18a3.31,3.31,0,0,1,4.68-4.68l17.87,17.87a3.31,3.31,0,0,1-2.34,5.65Z"/><path class="cls-4" d="M1366,258.16,1383.92,276Z"/><path d="M1383.92,279.34a3.27,3.27,0,0,1-2.34-1L1363.7,260.5a3.31,3.31,0,1,1,4.68-4.68l17.88,17.87a3.31,3.31,0,0,1-2.34,5.65Z"/><path class="cls-4" d="M1386.72,237.47l17.88,17.88Z"/><path d="M1404.6,258.66a3.33,3.33,0,0,1-2.34-1l-17.87-17.88a3.31,3.31,0,0,1,4.68-4.68L1406.94,253a3.31,3.31,0,0,1-2.34,5.65Z"/><path d="M188.7,205.65a3.31,3.31,0,0,1-3.31-3.31V185.23a3.31,3.31,0,1,1,6.62,0v17.11A3.31,3.31,0,0,1,188.7,205.65Z"/><path d="M188.7,245.51a3.31,3.31,0,0,1-3.31-3.31V225.09a3.31,3.31,0,1,1,6.62,0V242.2A3.31,3.31,0,0,1,188.7,245.51Z"/><path d="M177.33,217H160.21a3.31,3.31,0,0,1,0-6.62h17.12a3.31,3.31,0,0,1,0,6.62Z"/><path d="M217.19,217H200.07a3.31,3.31,0,0,1,0-6.62h17.12a3.31,3.31,0,0,1,0,6.62Z"/><path d="M1186.85,44.31a3.31,3.31,0,0,1-3.31-3.31V23.89a3.31,3.31,0,0,1,6.62,0V41A3.31,3.31,0,0,1,1186.85,44.31Z"/><path d="M1186.85,84.17a3.31,3.31,0,0,1-3.31-3.31V63.75a3.31,3.31,0,0,1,6.62,0V80.86A3.31,3.31,0,0,1,1186.85,84.17Z"/><path d="M1175.48,55.69h-17.11a3.31,3.31,0,1,1,0-6.62h17.11a3.31,3.31,0,0,1,0,6.62Z"/><path d="M1215.34,55.69h-17.11a3.31,3.31,0,1,1,0-6.62h17.11a3.31,3.31,0,1,1,0,6.62Z"/><path d="M740.23,1483.29h-.16a3.31,3.31,0,0,1-3.15-3.46l.81-17.09a3.31,3.31,0,0,1,6.61.31l-.8,17.09A3.32,3.32,0,0,1,740.23,1483.29Z"/><path d="M738.36,1523.1h-.16a3.32,3.32,0,0,1-3.15-3.46l.81-17.09a3.31,3.31,0,0,1,6.61.31l-.8,17.09A3.32,3.32,0,0,1,738.36,1523.1Z"/><path d="M728.34,1494.12h-.16l-17.09-.8a3.31,3.31,0,1,1,.31-6.61l17.09.8a3.31,3.31,0,0,1-.15,6.62Z"/><path d="M768.15,1496H768l-17.1-.8a3.31,3.31,0,0,1,.31-6.61l17.1.8a3.31,3.31,0,0,1-.16,6.62Z"/><path d="M1568.28,419.86a3.31,3.31,0,0,1-2.31-5.68l176.59-172a3.31,3.31,0,0,1,4.62,4.74l-176.59,172A3.27,3.27,0,0,1,1568.28,419.86Z"/><path d="M860.45,1696a3.31,3.31,0,0,1-2.31-5.68l276.11-268.91a3.31,3.31,0,0,1,4.62,4.74L862.76,1695A3.32,3.32,0,0,1,860.45,1696Z"/><path d="M1634.24,259.11a3.31,3.31,0,0,1-2.32-5.66L1817.57,70.61a3.31,3.31,0,1,1,4.64,4.72L1636.57,258.16A3.3,3.3,0,0,1,1634.24,259.11Z"/><path d="M728.33,501.08a3.31,3.31,0,0,1-2.3-5.68l133.7-130.22a3.31,3.31,0,0,1,4.61,4.75L730.64,500.14A3.27,3.27,0,0,1,728.33,501.08Z"/><path d="M843.1,1207.88a3.31,3.31,0,0,1-2.31-5.68l206.85-201.45a3.31,3.31,0,0,1,4.62,4.74L845.41,1206.94A3.3,3.3,0,0,1,843.1,1207.88Z"/><path d="M1026.66,1634.18a3.31,3.31,0,0,1-2.31-5.68l133.71-130.21a3.31,3.31,0,1,1,4.61,4.74L1029,1633.24A3.27,3.27,0,0,1,1026.66,1634.18Z"/><path d="M901.48,1558.42a3.31,3.31,0,0,1-2.31-5.68l64.93-63.24a3.31,3.31,0,0,1,4.61,4.75l-64.93,63.23A3.26,3.26,0,0,1,901.48,1558.42Z"/><path d="M736,391.47a3.31,3.31,0,0,1-2.32-5.67L919.36,203a3.31,3.31,0,0,1,4.65,4.71L738.36,390.52A3.3,3.3,0,0,1,736,391.47Z"/><polygon class="cls-4" points="571.47 1678.04 561.35 1749.81 594.49 1749.81 616.09 1671.85 571.47 1678.04"/><path d="M594.49,1753.12H561.35a3.33,3.33,0,0,1-2.5-1.14,3.27,3.27,0,0,1-.78-2.63l10.12-71.77a3.31,3.31,0,0,1,2.82-2.82l44.63-6.19a3.31,3.31,0,0,1,3.64,4.16l-21.6,78A3.31,3.31,0,0,1,594.49,1753.12Zm-29.34-6.62H592l19.59-70.68L574.4,1681Z"/><path class="cls-2" d="M708,1808.3H556.71c-7.88,0-13.92-7.93-12.78-16.79,2.61-20.1,7.2-52.72,11.17-66,5.92-19.88,25.07,11.79,25.07,11.79l21.13-20.21s89.79,42.68,112.69,77.63C717.67,1800.31,714.19,1808.3,708,1808.3Z"/><path d="M708,1811.61H556.71a15.34,15.34,0,0,1-11.62-5.42,19.12,19.12,0,0,1-4.44-15.11c3-23.16,7.39-53.51,11.28-66.55,1.6-5.38,4.36-8.36,8.2-8.85,7.7-.93,16.23,9.82,20.66,16.42L599,1714.67a3.31,3.31,0,0,1,3.71-.6c3.7,1.76,90.9,43.49,114,78.8a12.69,12.69,0,0,1,.52,13A10.51,10.51,0,0,1,708,1811.61Zm-146.79-89.38-.26,0c-1,.12-2,1.68-2.7,4.18-3.95,13.27-8.62,46.74-11,65.5a12.46,12.46,0,0,0,2.84,9.89,8.82,8.82,0,0,0,6.65,3.17H708a4,4,0,0,0,3.44-2.28,6.14,6.14,0,0,0-.24-6.21c-20.24-30.89-95.85-68.87-109.3-75.46l-19.47,18.62a3.3,3.3,0,0,1-5.11-.67C572.35,1730.75,564.81,1722.23,561.23,1722.23Z"/><path d="M698.84,1798.53H557.5a3.31,3.31,0,0,1,0-6.62H698.84a3.31,3.31,0,0,1,0,6.62Z"/><path class="cls-4" d="M387.32,1625.07c-3.13,8-38.45,90.11-38.45,90.11l26.58,33.3L393.83,1727l36.27-93.92Z"/><path d="M375.45,1751.79h-.05a3.31,3.31,0,0,1-2.53-1.25l-26.59-33.29a3.33,3.33,0,0,1-.45-3.38c.35-.82,35.34-82.12,38.41-90a3.32,3.32,0,0,1,3.69-2l42.78,8a3.27,3.27,0,0,1,2.28,1.64,3.32,3.32,0,0,1,.2,2.8l-36.27,93.92a3.26,3.26,0,0,1-.57,1L378,1750.63A3.34,3.34,0,0,1,375.45,1751.79Zm-22.75-37.12,22.84,28.61,15.41-18,34.63-89.68-36.21-6.79C383.35,1643.38,357.66,1703.13,352.7,1714.67Z"/><path class="cls-2" d="M328.8,1709.34a16.51,16.51,0,0,0-4,17.62c7.74,20.9,28.68,67.24,66,80.87,29.7,10.84,50,10.89,61.37,9.28a7.57,7.57,0,0,0,5.29-11.49c-12.43-20-41.72-69.55-44.39-95.07-3.39-32.48-42,6.27-42,6.27l-20.81-28.25Z"/><path d="M440.67,1821.19c-12.31,0-29.24-2.3-51-10.25-38.9-14.21-60.48-62.66-68-82.83a19.83,19.83,0,0,1,4.78-21.14l21.45-20.77a3.3,3.3,0,0,1,5,.41l18.57,25.22c6.92-6.4,24.29-20.87,35.67-16.84,5.25,1.85,8.35,7,9.21,15.22,2.6,24.82,31.58,73.77,43.91,93.67a10.88,10.88,0,0,1,.61,10.38,10.73,10.73,0,0,1-8.24,6.12A85.75,85.75,0,0,1,440.67,1821.19Zm-90.84-127.61-18.73,18.14h0a13.2,13.2,0,0,0-3.18,14.09c7.15,19.31,27.7,65.65,64,78.91,28.69,10.48,48.34,10.74,59.77,9.11a4.11,4.11,0,0,0,3.18-2.37,4.22,4.22,0,0,0-.23-4.09c-12.58-20.28-42.13-70.29-44.87-96.47-.57-5.49-2.2-8.74-4.84-9.67-7.36-2.6-23.26,9.61-31.55,17.93a3.31,3.31,0,0,1-5-.38Zm-21,15.76h0Z"/><path d="M435.73,1805.77a2.92,2.92,0,0,1-.51,0c-82.29-12.68-102.1-82.84-102.29-83.55a3.31,3.31,0,0,1,6.39-1.72c.18.66,19,66.72,96.91,78.73a3.31,3.31,0,0,1-.5,6.58Z"/><path d="M397.78,1761.31a3.31,3.31,0,0,1-1.5-6.26l26.39-13.32a3.31,3.31,0,1,1,3,5.91L399.27,1761A3.32,3.32,0,0,1,397.78,1761.31Z"/><path d="M616.09,1768.2a3.31,3.31,0,0,1-2.78-5.11l18.09-28a3.31,3.31,0,0,1,5.56,3.6l-18.09,28A3.33,3.33,0,0,1,616.09,1768.2Z"/><path class="cls-2" d="M501.57,1151.15s-54.42-43.58-25.69-67.16c25.69-21.09,45.55-20,45.55-20Z"/><path d="M501.57,1154.46a3.31,3.31,0,0,1-2.07-.73c-1.44-1.15-35.15-28.43-35.3-52.77-.05-7.7,3.18-14.27,9.58-19.53,26.39-21.67,47-20.78,47.83-20.74a3.34,3.34,0,0,1,2.46,1.32,3.27,3.27,0,0,1,.58,2.72l-19.85,87.16a3.33,3.33,0,0,1-2.14,2.39A3.41,3.41,0,0,1,501.57,1154.46Zm15.65-86.88c-6.82.89-21.61,4.49-39.24,19-4.85,4-7.19,8.69-7.16,14.38.09,16.59,20,36.26,28.74,44.14Z"/><path d="M541.05,1043.09s-72.65,58.88-89.6,119.64C437.37,1213.22,411,1507.84,411,1507.84s-42.25,117.56-44.36,151.74c0,0,33.52,23.91,59.26,20.24l58.72-142.29s13-17.18,19.27-37.15,59.7-207.83,59.7-207.83,4.31,277.81-4.12,396c0,0,38.29,5.86,61.15.89,0,0,8.75-96.44,19.15-120s12.62-60.57,9.3-96,31.65-236.35,22.58-413.64Z"/><path class="cls-3" d="M430.1,1577.75a3.31,3.31,0,0,1-.33-6.6c.31,0,24.31-2.81,43.44-27.88a3.31,3.31,0,0,1,5.26,4c-21,27.5-47,30.34-48,30.45Z"/><path class="cls-3" d="M541,1372.16a3.4,3.4,0,0,1-1-.15,3.32,3.32,0,0,1-2.18-4.15L580.6,1230.5a3.32,3.32,0,0,1,1.63-2l32.33-16.86a3.31,3.31,0,1,1,3.06,5.87l-31.11,16.23-42.41,136A3.3,3.3,0,0,1,541,1372.16Z"/><path class="cls-2" d="M470.74,1095.45c-1.48-9.06,24.35-23.35,31.26-25.5,16.77-5.2,34.38-.78,49.51,7.19,62.28,32.76,136.21,16.28,136.21,16.28s10.36-149-20.57-231.31c-4.87-13-17.66-26.15-31.2-29.11-29-6.34-49.6-15.63-81.14-17.75-23.64-1.58-69.87,2.57-84.32,5.71s-33.4,19-29.57,28.65L475,899.16C459.68,997.81,460.2,1030.84,470.74,1095.45Z"/><path d="M642.61,1101c-26.55,0-60.89-4.21-92.64-20.92-11.74-6.17-29.43-12.4-47-6.94-8.75,2.71-29.88,16.24-29,21.79h0a3.31,3.31,0,0,1-6.54,1.06v0c-10.43-63.91-11.18-97.6,4.06-196l-33.34-48.46a3.67,3.67,0,0,1-.34-.65c-.92-2.3-1.43-6.11,1.3-11.25,5-9.48,18.78-19.29,30.64-21.86C485,814.42,531.15,810.36,555,812c21.12,1.42,37.24,5.95,54.3,10.75,8.62,2.42,17.53,4.93,27.33,7.07,15.65,3.43,28.75,18.27,33.59,31.17C701.07,943,691.12,1092.15,691,1093.65a3.31,3.31,0,0,1-2.58,3C686.93,1097,668.45,1101,642.61,1101ZM517.12,1064.4c13.84,0,26.62,4.91,35.93,9.81,54.22,28.52,118.36,18.87,131.52,16.46,1.16-19.94,7.61-152.5-20.52-227.4-4.83-12.88-17.22-24.5-28.81-27-10-2.19-19-4.72-27.7-7.17-16.72-4.7-32.52-9.14-52.95-10.51C532,817,486.05,821,471.2,824.19,461.34,826.34,449.1,835,445,842.7c-.8,1.52-1.62,3.64-1.1,5.39l33.84,49.19a3.31,3.31,0,0,1,.55,2.38c-14.48,93.17-14.65,128-5.88,185.15,8.45-9,24.92-16.87,28.62-18A54.24,54.24,0,0,1,517.12,1064.4Z"/><path d="M563.23,779.48c-6.89,6.71-15.53,8-19.7,8.65-8.72,1.32-46,3.37-71.13-24.73-24.59-27.51-27.09-72.3-13.06-81.43,10.08-6.56,26.09,6.95,41.27-3.23,6.72-4.51,5.13-8.2,12.28-13,12-8.06,27.51-4.94,39.36-2.38,21.62,4.66,20.91,10.63,39.94,15.39,27.08,6.78,42.5-1.84,47.8,6.89,4.23,7-1.18,19.62-8.49,27C616.38,727.84,597.63,715,586,729c-7.22,8.72-6.19,20.67-17,42.28A28.94,28.94,0,0,1,563.23,779.48Z"/><path class="cls-4" d="M584.38,800.53c-.81-2.78-1.67-5.87-2.48-9.09,6.11,2.52,12.52,2.92,16.31.84,4.68-2.56,5.53-7.61,7.41-13.66.79-2.52,1.51-5.47,4.15-8a13.44,13.44,0,0,1,4.48-2.87,4,4,0,0,0,2.33-4.71l-.49-1.15a75.18,75.18,0,0,1-6-28.56l-.21-19.38c-10.58-4.2-14.44-3.49-15.88-1.81-.53.61-1.32,1-1.28,4,.18,14.41-12.77,12.93-23.6,10.28s-7,17.43-7,17.43-6.72-8.68-14.2-1.14c-5.36,5.41,5.07,14.26,11.41,18.84L555,803.14c-1.13,11-11.44,10.86-21.78,14.65l-27.89,7s73,32.45,117.91,9.51L599.18,826C590.94,821.59,586.53,807.9,584.38,800.53Z"/><path d="M583.92,845.84c-38.71,0-77.69-17.07-79.91-18.05a3.31,3.31,0,0,1,.54-6.24l27.73-6.93c2.35-.85,4.63-1.5,6.84-2.12,8.08-2.29,12-3.66,12.62-9.69l4.09-39.76c-8-6.07-12.3-11.51-12.68-16.2a8.09,8.09,0,0,1,2.41-6.51c3.57-3.6,7.09-4.18,9.42-4a11.23,11.23,0,0,1,3.15.66c0-4.26.68-9.2,3.61-12,1.46-1.38,4.07-2.82,8.19-1.82,3.24.79,13.1,3.2,17.14,0,1.64-1.3,2.41-3.6,2.37-7s.77-4.83,2-6.11c3.14-3.66,9.19-3.38,19.7.79a3.33,3.33,0,0,1,2.09,3l.21,19.39a71.43,71.43,0,0,0,5.71,27.3l.48,1.15a2.18,2.18,0,0,1,.16.45,7.3,7.3,0,0,1-4.3,8.62,10.12,10.12,0,0,0-3.4,2.17c-1.8,1.74-2.42,3.79-3.08,5.94l-.22.72c-.26.83-.5,1.64-.73,2.43-1.56,5.29-3,10.29-8.25,13.15-3.33,1.83-8.08,2.2-13.17,1.15.3,1.08.61,2.17.92,3.26h0c1.38,4.77,5.57,19.17,13,23.39l23.81,8.15a3.31,3.31,0,0,1,.43,6.08C612.43,843.52,598.19,845.84,583.92,845.84Zm-67.74-20.37c19.39,7.08,64.56,20.79,97.86,9.14l-15.93-5.45a3.16,3.16,0,0,1-.5-.22c-8.94-4.81-13.65-18-16.41-27.49-.92-3.15-1.76-6.25-2.51-9.2a3.31,3.31,0,0,1,4.47-3.87c5.22,2.15,10.63,2.55,13.46,1s3.6-4.17,5.08-9.21c.24-.82.49-1.67.76-2.53l.21-.68a18.8,18.8,0,0,1,4.78-8.75,16.91,16.91,0,0,1,5.56-3.57.68.68,0,0,0,.39-.66l-.36-.84a78.13,78.13,0,0,1-6.23-29.81l-.19-17.13c-8.3-3-10.1-1.92-10.12-1.91s-.17.19-.27.31-.18.36-.17,1.46c.07,5.53-1.57,9.65-4.87,12.28-5.83,4.63-15.26,3.1-22.83,1.25-1.48-.36-1.91,0-2.07.19-1.91,1.81-1.76,9-.92,13.42a3.31,3.31,0,0,1-5.87,2.64c-.61-.76-2.71-2.81-5-2.93-1.41-.07-2.82.6-4.29,2.09a1.46,1.46,0,0,0-.51,1.31c.17,2.16,3.29,6.58,11.51,12.52a3.3,3.3,0,0,1,1.35,3l-4.29,41.63c-1.11,10.77-9.39,13.12-17.4,15.39-2.14.6-4.36,1.23-6.53,2l-.34.1Z"/><path d="M583.8,794.75a3.4,3.4,0,0,1-1.08-.18c-13.14-4.55-18.45-22.23-18.67-23a3.31,3.31,0,0,1,6.35-1.86h0c.05.15,4.59,15.16,14.49,18.58a3.31,3.31,0,0,1-1.09,6.44Z"/><path class="cls-1" d="M579.53,1068.22l191.44-.29a10.56,10.56,0,0,0,10.23-8L819.61,904a10.56,10.56,0,0,0-10.27-13.08l-191.44.29a10.56,10.56,0,0,0-10.23,8l-38.41,155.88A10.55,10.55,0,0,0,579.53,1068.22Z"/><path d="M579.51,1071.53a13.85,13.85,0,0,1-13.46-17.18l38.41-155.88a13.83,13.83,0,0,1,13.44-10.55l191.44-.29h0a13.86,13.86,0,0,1,13.46,17.18l-38.4,155.88A13.85,13.85,0,0,1,771,1071.24l-191.44.29ZM809.36,894.25h0l-191.44.29a7.24,7.24,0,0,0-7,5.51l-38.4,155.88a7.24,7.24,0,0,0,7,9h0l191.44-.29a7.23,7.23,0,0,0,7-5.51L816.4,903.23a7.25,7.25,0,0,0-7-9Z"/><path class="cls-4" d="M805.5,968.41,799.9,984l-46.06-21.84s-25.28,22,36.12,49.94C815.54,1023.77,805.5,968.41,805.5,968.41Z"/><path d="M796.34,1017a18.82,18.82,0,0,1-7.76-1.89c-26.63-12.15-41.1-25-43-38.11a20.08,20.08,0,0,1,6.09-17.35,3.3,3.3,0,0,1,3.59-.49L798,979.45l4.37-12.16a3.31,3.31,0,0,1,6.37.53c.69,3.83,6.44,37.67-5.33,46.83A11.27,11.27,0,0,1,796.34,1017ZM754.65,966.2a13.25,13.25,0,0,0-2.5,10c1.13,7.38,8.84,19.09,39.18,32.92,5.34,2.44,7.37.86,8,.34,4.54-3.53,5.29-15.47,4.54-26.76l-.88,2.45a3.32,3.32,0,0,1-4.53,1.88Z"/><path class="cls-4" d="M474,1163.84c9.27,2,14.34,2.2,18.75-10.48,2.25-6.48-7.07-24.22-9.38-30.68-14.15-39.63-19.26-78.07-12.68-119.36,6.89-43.23,22-88.85,10-132.23-4-14.58-18.09-51.62-38.53-29.64a35.09,35.09,0,0,0-8.34,16.21c-11.32,49.68-20.87,100.53-20.62,151.83.23,46.07,16.9,89.77,39.25,130.08C458,1149.54,464.94,1161.88,474,1163.84Z"/><path d="M481.2,1168.15a38.36,38.36,0,0,1-7.88-1.08h0c-10.59-2.28-17.86-15.37-23.71-25.89-26.49-47.76-39.46-90.83-39.67-131.67-.26-53.15,9.8-104.75,20.7-152.59a38.59,38.59,0,0,1,9.14-17.73c6-6.45,12.2-9,18.41-7.43,15.09,3.7,23.52,30.37,25.74,38.45,9.45,34.38,2.37,69.92-4.49,104.29-1.93,9.68-3.93,19.69-5.46,29.34-6.21,39-2.23,76.37,12.53,117.73.51,1.45,1.45,3.6,2.53,6.09,4.92,11.29,8.83,21.1,6.86,26.78C492.14,1165.24,487.28,1168.15,481.2,1168.15ZM454.7,838c-3.18,0-6.49,1.9-10.07,5.75a31.86,31.86,0,0,0-7.53,14.69c-10.82,47.46-20.79,98.61-20.54,151.08.2,39.7,12.9,81.73,38.84,128.49,4.92,8.86,11.66,21,19.31,22.64h0c8.14,1.76,11.19,2.42,14.93-8.33,1.28-3.7-4.09-16-6.67-22-1.14-2.6-2.12-4.85-2.71-6.51-15.15-42.44-19.22-80.89-12.83-121C469,993,471,983,473,973.21c6.7-33.62,13.63-68.37,4.6-101.24-4.2-15.29-12.31-31.67-20.94-33.78A7.75,7.75,0,0,0,454.7,838Z"/><path class="cls-3" d="M456.37,1169.17a3.31,3.31,0,0,1,0-6.62c65.69-.38,90.52-69.52,90.77-70.22a3.31,3.31,0,1,1,6.25,2.18c-.26.74-26.67,74.25-97,74.66Z"/><polygon class="cls-4" points="276.6 1673.94 309.04 1768.13 354.35 1765.8 321.98 1661.67 276.6 1673.94"/><path d="M309,1771.44a3.31,3.31,0,0,1-3.13-2.23L273.47,1675a3.31,3.31,0,0,1,2.27-4.27l45.38-12.27a3.31,3.31,0,0,1,4,2.21l32.36,104.12a3.31,3.31,0,0,1-3,4.29l-45.31,2.34Zm-28.16-95.22,30.48,88.48,38.56-2-30.15-97Z"/><path class="cls-3" d="M295.15,1757.23c-1.32,9.39-3.45,26.81-3.63,42.42A19.33,19.33,0,0,0,308.41,1819c27.34,3.53,89.37,7.39,142.21,2.57,3.62-.33,10-3,11.79-12.07,6-30.49-46.77-38-104.62-60.1a6.23,6.23,0,0,0-6.57,1.35L345,1756.8a21.5,21.5,0,0,1-23.48,4.38l-19-8.14A5.33,5.33,0,0,0,295.15,1757.23Z"/><path d="M395.58,1827.14c-35.59,0-68.79-2.45-87.6-4.88a22.62,22.62,0,0,1-19.77-22.65c.18-15.91,2.37-33.67,3.66-42.84h0a8.64,8.64,0,0,1,12-6.77l19,8.13a18.15,18.15,0,0,0,19.88-3.7l6.23-6.07a9.59,9.59,0,0,1,10.07-2.07c13.47,5.16,26.43,9.44,39,13.57,40.7,13.43,72.85,24,67.71,50.26-2,10.06-9.17,14.22-14.74,14.73C432.94,1826.49,413.94,1827.14,395.58,1827.14Zm-95.15-71.23a2,2,0,0,0-1,.27,2,2,0,0,0-1,1.51h0c-1.27,9-3.42,26.46-3.6,42a16,16,0,0,0,14,16c28.22,3.64,89.18,7.33,141.49,2.55,1.19-.11,7.21-1.07,8.85-9.4,4-20.49-24.22-29.81-63.3-42.7-12.6-4.16-25.64-8.47-39.26-13.67a2.91,2.91,0,0,0-3.08.62l-6.24,6.07a24.74,24.74,0,0,1-27.1,5l-19-8.14A2,2,0,0,0,300.43,1755.91Zm-5.28,1.32h0Z"/><path class="cls-4" d="M291.56,1797.31s0,1.58,0,2.34A19.33,19.33,0,0,0,308.41,1819c27.34,3.53,89.37,7.39,142.21,2.57,3.62-.33,10-3,11.79-12.07a39.75,39.75,0,0,0,.21-7.8l-3.74.19A1087.57,1087.57,0,0,1,298.77,1798Z"/><path d="M395.58,1827.14c-35.59,0-68.79-2.45-87.6-4.88a22.62,22.62,0,0,1-19.77-22.65l.05-2.37a3.29,3.29,0,0,1,3.63-3.23l7.2.71a1089.24,1089.24,0,0,0,159.62,3.84l3.75-.18a3.27,3.27,0,0,1,3.47,3.08,42.58,42.58,0,0,1-.27,8.66c-2,10.06-9.17,14.22-14.74,14.73C432.94,1826.49,413.94,1827.14,395.58,1827.14ZM294.87,1801a16,16,0,0,0,14,14.75c28.22,3.64,89.18,7.33,141.49,2.55,1.19-.11,7.21-1.07,8.85-9.4a23.48,23.48,0,0,0,.25-3.7l-.38,0a1095.44,1095.44,0,0,1-160.59-3.86Z"/><path d="M371.06,1785.63a3.31,3.31,0,0,1-2.35-5.64l20.3-20.42a3.31,3.31,0,1,1,4.69,4.66l-20.29,20.42A3.28,3.28,0,0,1,371.06,1785.63Z"/><path d="M391,1787.75a3.26,3.26,0,0,1-2.28-.92,3.31,3.31,0,0,1-.11-4.68l16.22-16.94a3.31,3.31,0,1,1,4.78,4.57l-16.21,17A3.32,3.32,0,0,1,391,1787.75Z"/><polygon class="cls-4" points="87.54 1685.07 81.4 1765.8 49.45 1765.8 53.68 1687.2 87.54 1685.07"/><path d="M81.4,1769.11H49.45a3.32,3.32,0,0,1-3.3-3.49L50.37,1687a3.31,3.31,0,0,1,3.1-3.13l33.86-2.14a3.37,3.37,0,0,1,2.56,1,3.3,3.3,0,0,1,1,2.58l-6.14,80.73A3.31,3.31,0,0,1,81.4,1769.11ZM53,1762.49H78.33L84,1688.61l-27.13,1.71Z"/><path class="cls-3" d="M47.76,1828.68c-14.54-2.41-22.73-12.91-23.18-22-1.33-26.89,5.73-52.45,19-69.8a3.42,3.42,0,0,1,5.61.29l.35.31a6,6,0,0,0,8-.06,11.15,11.15,0,0,1,7.09-2.68l3.71,0a12.43,12.43,0,0,1,10.42,5.75,2.89,2.89,0,0,0,4.6.29l2.1-2.37a2.27,2.27,0,0,1,3.85,1.58l2.27,73.58C90.48,1828,66.8,1831.83,47.76,1828.68Z"/><path d="M60.44,1833A83.22,83.22,0,0,1,47.22,1832h0c-16.35-2.71-25.43-14.66-25.95-25.06-1.36-27.59,5.8-53.82,19.65-72a6.72,6.72,0,0,1,10.75.1l.07.07a2.72,2.72,0,0,0,3.65-.14,14.47,14.47,0,0,1,9.2-3.48l3.7,0a16,16,0,0,1,12.93,6.78l1.93-2.18a5.54,5.54,0,0,1,6-1.16,5.6,5.6,0,0,1,3.49,5l2.28,73.75,0,.18a16.43,16.43,0,0,1-6.63,11.84C81.3,1831.1,70.56,1833,60.44,1833Zm-12.14-7.59c14.36,2.37,29.11.33,35.87-5a9.83,9.83,0,0,0,4.1-7l-2.18-70.79-.25.28a6.36,6.36,0,0,1-5.24,2.1,6,6,0,0,1-4.65-2.83,9.22,9.22,0,0,0-7.57-4.19l-3.7,0a7.81,7.81,0,0,0-5,1.89,9.28,9.28,0,0,1-12.42,0l-.67-.62-.24-.38c-13.09,16.89-19.76,41.54-18.48,67.59.38,7.57,7.66,16.74,20.42,18.86Z"/><path class="cls-4" d="M91,1793.87a13.68,13.68,0,0,1-2.06,4.51c-3.27,4.59-12.21,13.58-31.3,12-22.62-1.85-33-17.69-33-17.69a131,131,0,0,0-.06,14c.45,9,8.64,19.55,23.18,22,19,3.15,42.72-.72,43.82-15.12l-.6-19.69Z"/><path d="M60.44,1833A83.22,83.22,0,0,1,47.22,1832c-16.35-2.71-25.43-14.66-25.95-25.06a135.18,135.18,0,0,1,.07-14.38,3.31,3.31,0,0,1,6.07-1.62c.39.59,9.86,14.52,30.48,16.21C75,1808.48,83,1801,86.23,1796.46a10.23,10.23,0,0,0,1.54-3.41,3.31,3.31,0,0,1,6.51.72l.61,19.68a2.17,2.17,0,0,1,0,.36,16.43,16.43,0,0,1-6.63,11.84C81.3,1831.1,70.56,1833,60.44,1833Zm-32.71-31.94q0,2.75.15,5.49c.38,7.57,7.66,16.74,20.42,18.86,14.36,2.37,29.11.33,35.87-5a9.81,9.81,0,0,0,4.1-7l-.28-9c-5.12,4.85-14.68,10.57-30.64,9.25A49.53,49.53,0,0,1,27.73,1801.07Z"/><path d="M75.39,1776.77H49.12a3.31,3.31,0,0,1,0-6.62H75.39a3.31,3.31,0,1,1,0,6.62Z"/><path d="M78.12,1763.45H51.85a3.31,3.31,0,1,1,0-6.62H78.12a3.31,3.31,0,0,1,0,6.62Z"/><path class="cls-3" d="M336.11,1725a11.47,11.47,0,0,0,10.65-13.22c-6.95-45-30.38-199.8-31.65-249.39-1.49-58.27-39.05-302.27-39.05-302.27l-40.95-2.9c2.7-8,4.21-12.29,4.21-12.29l-149.11-8.69c-69.18,113.45-49.12,516.49-45.87,574a8.47,8.47,0,0,0,7.28,7.9c18.07,2.57,28.79,2.39,34.9,1.64a8.46,8.46,0,0,0,7.44-8.1c2.82-82.29,39.72-225.59,75.63-347.5,31.06,120.08,100,314.25,114.54,355a11.47,11.47,0,0,0,11,7.6C309,1726.5,325.17,1725.64,336.11,1725Z"/><path class="cls-2" d="M298.39,1512H517.77a20.79,20.79,0,0,0,20.37-25l-33.29-161.79a29.25,29.25,0,0,0-28.66-23.37H288Z"/><path d="M517.77,1515.29H298.39a3.31,3.31,0,0,1-3.3-3.14L284.71,1302a3.32,3.32,0,0,1,3.31-3.47H476.19a32.7,32.7,0,0,1,31.91,26l33.28,161.79a24.1,24.1,0,0,1-23.61,29Zm-216.23-6.62H517.77a17.47,17.47,0,0,0,17.12-21l-33.28-161.79a26.05,26.05,0,0,0-25.42-20.72H291.49Z"/><path class="cls-3" d="M270.31,1512h42.57a20.79,20.79,0,0,0,20.37-25l-36.66-178.2a8.72,8.72,0,0,0-8.54-7H277.1a8.71,8.71,0,0,0-8.68,8l-15,183.81A17,17,0,0,0,270.31,1512Z"/><path d="M312.88,1515.29H270.31a20.25,20.25,0,0,1-20.19-21.89l15-183.82a12.09,12.09,0,0,1,12-11h10.95a12.07,12.07,0,0,1,11.78,9.6l36.66,178.2a24.1,24.1,0,0,1-23.61,29ZM277.1,1305.15a5.42,5.42,0,0,0-5.38,5l-15,183.82a13.62,13.62,0,0,0,13.59,14.74h42.57a17.49,17.49,0,0,0,17.13-21l-36.66-178.19a5.42,5.42,0,0,0-5.3-4.32Z"/><path d="M495.07,1390.07H340.61a14.24,14.24,0,0,1-13.91-11l-15.14-63.92a3.31,3.31,0,1,1,6.44-1.53l15.14,63.92a7.65,7.65,0,0,0,7.47,5.91H495.07a3.31,3.31,0,1,1,0,6.61Z"/><path class="cls-4" d="M394.58,1386.77l4.81,19.4a7.28,7.28,0,0,0,7.08,5.61h34a5.6,5.6,0,0,0,5.4-7.1l-5-17.91Z"/><path d="M440.49,1415.09h-34a10.54,10.54,0,0,1-10.3-8.15l-4.8-19.38a3.29,3.29,0,0,1,3.21-4.1H440.9a3.31,3.31,0,0,1,3.19,2.42l5,17.91a8.9,8.9,0,0,1-8.58,11.3Zm-41.68-25,3.79,15.31a4,4,0,0,0,3.87,3.09h34a2.29,2.29,0,0,0,2.21-2.91l-4.31-15.49Z"/><path class="cls-4" d="M322.41,1300.75l-4-20.26c-1.82-12.71,4.89-19.8,14.56-19.8h88.73c9.67,0,18.83,10.13,20.46,19.8l3.95,20.26H431.9l-3.44-17.24c-1.27-7.53-5.87-11.34-13.39-11.34H340.35c-7.52,0-8.41,3.81-7.14,11.34l3.44,17.24Z"/><path d="M446.15,1304.06H431.9a3.3,3.3,0,0,1-3.24-2.66l-3.45-17.24c-1-6-4.22-8.68-10.14-8.68H340.35c-2,0-3.33.32-3.8.87s-.83,2.12-.08,6.61l3.43,17.15a3.31,3.31,0,0,1-3.25,4H322.41a3.3,3.3,0,0,1-3.25-2.67l-4-20.27c-1.35-9.38,1.48-14.9,4.09-17.91a17.75,17.75,0,0,1,13.72-5.83h88.73c11.74,0,21.92,11.89,23.72,22.56l3.94,20.18a3.31,3.31,0,0,1-3.25,3.94Zm-11.53-6.61h7.51L439,1281.12c-1.34-8-9.14-17.12-17.21-17.12H333c-3.69,0-6.7,1.22-8.71,3.54-2.45,2.82-3.34,7.14-2.57,12.48l3.4,17.43h7.49L330,1284.16c-.76-4.5-1.08-9,1.54-12.08,1.83-2.17,4.72-3.21,8.85-3.21h74.72c9.21,0,15.12,5,16.65,14.09Z"/><path class="cls-2" d="M338.91,1257.33h75a6.76,6.76,0,0,1,6.4,5.48l1.1,6.55a4.51,4.51,0,0,1-4.55,5.48h-75a6.75,6.75,0,0,1-6.4-5.48l-1.1-6.55A4.51,4.51,0,0,1,338.91,1257.33Z"/><path d="M416.89,1278.15h-75a10.06,10.06,0,0,1-9.66-8.24l-1.1-6.55a8.05,8.05,0,0,1,1.71-6.59,8,8,0,0,1,6.1-2.75h75a10.06,10.06,0,0,1,9.66,8.24l1.1,6.55a8.05,8.05,0,0,1-1.71,6.59A7.93,7.93,0,0,1,416.89,1278.15Zm-78-17.51a1.34,1.34,0,0,0-1.05.41,1.48,1.48,0,0,0-.24,1.21l1.11,6.55a3.46,3.46,0,0,0,3.13,2.72h75a1.36,1.36,0,0,0,1.05-.4,1.51,1.51,0,0,0,.24-1.22l-1.11-6.55a3.47,3.47,0,0,0-3.13-2.72Z"/><path class="cls-2" d="M313.28,1489.73a3.26,3.26,0,0,1-1.64-.44l-29.41-16.75a3.32,3.32,0,0,1-1.67-2.88V1325.57a3.31,3.31,0,0,1,6.62,0v142.17l27.74,15.8a3.31,3.31,0,0,1-1.64,6.19Z"/><path class="cls-4" d="M407.2,1250.09c-1-5.86-2.56-13-4.1-18.73-2-7.45.23-47.48.23-47.48l-32.23-8.37s6.9,34.09-4.44,41.48a56.92,56.92,0,0,0-25.05,39.35l11.44-.06a16.41,16.41,0,0,1,12.86,6c2.35,2.89,6.07,12.13,6.07,12.13l-16.7.58s3.79,18.17,18.43,18C386,1292.94,412.64,1282.13,407.2,1250.09Z"/><path d="M373.57,1296.35c-13.61,0-20-13.51-21.53-20.69a3.32,3.32,0,0,1,.64-2.72,3.28,3.28,0,0,1,2.49-1.26l11.86-.41a41.5,41.5,0,0,0-3.69-6.91,13,13,0,0,0-10.27-4.77l-11.45.06h0a3.32,3.32,0,0,1-3.3-3.61,59.83,59.83,0,0,1,26.54-41.82c6.89-4.49,5.5-25.72,3-38a3.31,3.31,0,0,1,4.08-3.86l32.23,8.36a3.32,3.32,0,0,1,2.47,3.39c-.88,15.88-1.7,41.35-.34,46.45,1.61,6,3.17,13.12,4.17,19h0c2.19,12.92-.41,24.24-7.52,32.72-8.07,9.64-20.49,14-29.21,14.1Zm-13.85-18.21c1.79,4.58,5.85,11.59,13.85,11.59h.11c7,0,17.51-3.75,24.19-11.73,5.91-7,7.95-16.26,6.07-27.36-1-5.62-2.51-12.68-4-18.42-1.83-6.83-.51-36.17,0-45.82l-24.65-6.4c1.57,10.52,3.57,33-6.77,39.76-16.08,10.47-21.31,26.21-22.91,33.25l7.48,0a19.52,19.52,0,0,1,15.45,7.22c2.59,3.19,6.17,12,6.57,13a3.31,3.31,0,0,1-3,4.55Z"/><path d="M63.22,854.83c38.15-24.68,69-32.68,112.71-34.59,15.62,26.78,51.33,29,58.42,12.55.16-.36.78.14,1.17.21,30.17,5.33,56,14.28,73.11,25.86l.13-.3s112.67,66.57,105.6,353.07l-56.93-9.84s-11.27-114.27-64.26-182.39c-2.11,119.19,9.44,202,10.43,214.18a4.66,4.66,0,0,1-4.56,5l-105.54,1.86-15.21-49.2-20.23,49.82L45.69,1243a3.3,3.3,0,0,1-3.35-3.59c1.45-16.51,9.31-96.09,12.55-159.83C29,1126.23-5.48,1103.12.74,1032.26,8.17,947.45,32.5,874.71,63.22,854.83Z"/><path class="cls-1" d="M178.29,1194.59a3.31,3.31,0,0,1-3.31-3.27l-1.24-108.81a3.31,3.31,0,0,1,3.27-3.35h0a3.32,3.32,0,0,1,3.31,3.27l1.24,108.81a3.31,3.31,0,0,1-3.27,3.35Z"/><path class="cls-1" d="M294.21,1015.48a3.32,3.32,0,0,1-3.27-2.8c-5.67-36.63-17.78-125.85-7.73-163.17a3.31,3.31,0,1,1,6.39,1.72c-6.74,25-3.8,85,7.88,160.44a3.3,3.3,0,0,1-2.76,3.77A2.92,2.92,0,0,1,294.21,1015.48Z"/><path class="cls-4" d="M159.61,825.17l1.56-91.34,52.23,35.92.11,54.64c-.23,10.11-8.68,15.87-8.68,15.87-10.46,8-25.29,6.78-36.18-.59L166.13,838A14.86,14.86,0,0,1,159.61,825.17Z"/><path d="M188,849.1a38,38,0,0,1-21.16-6.69l-2.52-1.7a18.09,18.09,0,0,1-8-15.62l1.56-91.31a3.31,3.31,0,0,1,5.19-2.67L215.28,767a3.3,3.3,0,0,1,1.43,2.72l.1,54.63c-.26,11.76-9.71,18.34-10.12,18.61A30.66,30.66,0,0,1,188,849.1ZM164.38,740.05l-1.46,85.17v0a11.49,11.49,0,0,0,5.07,10l2.52,1.71c10.36,7,23.65,7.3,32.31.7.2-.15,7.19-5.1,7.38-13.32l-.1-52.81Zm-4.77,85.12h0Z"/><path d="M250.81,676.61c-13.55-2.89,1.56,13.79-46.81-8.69C184.74,659,191.44,684,186.44,681.68,168,673.15,162.9,671,153.11,672c-6.48.68-21.51,11-20.69,19.69,2.67,28.46,16,23.08,20.69,48.27,3.33,17.7,7.29,23.53,13.68,27s12.84-4.84,20.17-1.52c9.5,4.29,5,21.11,13.59,29.69,5.42,5.41,19.26,9.65,43.56,2.11a8.54,8.54,0,0,0,5.94-9.21c-.64-5.27-1.49-11.93-2.83-18.23-6.39-30-15.55-38-10.8-44.76,7.29-10.4,27.68-.67,32.59-9.38C274.1,706.67,269.37,680.56,250.81,676.61Z"/><path class="cls-4" d="M195.87,718.17l2.83,7.88a86.69,86.69,0,0,1,3.22,11.38c1.52,7.24,4.61,19.58,6.27,26.53,5.34,22.37,34.72,3.2,34.72,3.2l2.66-5.52,3.7-.89a4.15,4.15,0,0,0,1.94-1,4.05,4.05,0,0,0,.87-4.72c-4.07-8.49-12.39-27.42-14-43.52A44.33,44.33,0,0,0,195.87,718.17Z"/><path d="M199,719.11c.77,1.34,1.47,2.58,2,3.85.3.64.56,1.28.81,1.94l1,2.74a102.61,102.61,0,0,1,3,11.1c1.61,7.18,3.41,14.4,5.17,21.63l.66,2.73a17.84,17.84,0,0,0,.68,2.21,10.38,10.38,0,0,0,2.13,3.52c1.71,1.84,4.39,2.62,7.55,2.48,6.3-.34,13.24-3.44,19.08-6.95l-1.18,1.34c.9-1.83,1.78-3.67,2.71-5.49l.08-.14a3.1,3.1,0,0,1,2.12-1.63,22.17,22.17,0,0,1,3.57-.41c.9,0,1.08.1,1.52-.36a1.52,1.52,0,0,0,.16-1.46l-1.45-3q-3-6.53-5.81-13.22c-3.61-8.94-6.77-18.18-8-28.13l2,2.7a34.6,34.6,0,0,0-4.76-1.35,41.67,41.67,0,0,0-5.11-.75,43,43,0,0,0-10.27.36,40.58,40.58,0,0,0-9.83,2.85,42.21,42.21,0,0,0-4.61,2.31c-.76.41-1.47.9-2.21,1.36l-.27.17s0,0-.06,0,0,0-.1-.07A1.78,1.78,0,0,0,199,719.11Zm-6.35-1.88a15,15,0,0,1,1.73-2,12,12,0,0,1,1-.88L196,714l.31-.21c.83-.54,1.64-1.12,2.51-1.61a48.65,48.65,0,0,1,5.3-2.8A47.06,47.06,0,0,1,215.59,706a46.53,46.53,0,0,1,12-.31,49.13,49.13,0,0,1,5.91.95,36.48,36.48,0,0,1,5.92,1.82h0a3.2,3.2,0,0,1,2,2.69,90,90,0,0,0,2.35,13.53c1.09,4.51,2.43,9,4,13.42s3.28,8.8,5.23,13.08l.72,1.61.37.8.19.4a6.29,6.29,0,0,1,.26.65,6.62,6.62,0,0,1-.53,5.41,6.84,6.84,0,0,1-1.84,2.21,9.06,9.06,0,0,1-2.37,1.29,22.46,22.46,0,0,1-3.37,1.25l2.19-1.76c-.84,1.86-1.74,3.69-2.61,5.54a3.18,3.18,0,0,1-1.18,1.35,65,65,0,0,1-10.53,5.4,37.91,37.91,0,0,1-11.89,2.89,19.64,19.64,0,0,1-6.72-.74,14.6,14.6,0,0,1-6.21-3.74,16.93,16.93,0,0,1-3.71-5.9,27.16,27.16,0,0,1-1-3.12l-.64-2.7c-1.74-7.23-3.55-14.45-5.16-21.8a93.82,93.82,0,0,0-2.58-10.51l-.84-2.55c-.38-1.09-.74-2.2-1.08-3.31C193.74,721.64,193.18,719.39,192.69,717.23Z"/><path class="cls-4" d="M197.62,744.46s-6.78-19-14.71-14.09.05,25.6,14.71,14.09Z"/><path d="M233.2,755a11.1,11.1,0,0,1-2.7-.34c-2-.48-3.64-2.15-4.74-4.7-1.86-4.33-2.2-11.84,2.43-20a7.54,7.54,0,0,1,4.76-3.45,9.52,9.52,0,0,1,7.4,1.27c4.73,2.94,4.15,9.41,4,11.54-.63,7.05-2.54,11.62-5.84,14A8.92,8.92,0,0,1,233.2,755Zm-.82-6.7a2.71,2.71,0,0,0,2.24-.34c.73-.53,2.5-2.47,3.1-9.19.25-2.84-.07-4.84-.87-5.33h0c-1.56-1-2.73-.39-2.92-.14C229.43,741.22,231.34,747.17,232.38,748.33Z"/><path d="M234.88,732.82h-.09l-43.54-1.13a3.31,3.31,0,0,1,.09-6.61h.09L235,726.21a3.31,3.31,0,0,1-.09,6.61Z"/><path d="M251.42,753.36a3.31,3.31,0,0,1-1.55-6.23c1.12-1.27,4.09-7.62,2.07-12.7-.24-.62-.5-.71-.68-.77-1.32-.45-4.22.53-5.73,1.39a3.31,3.31,0,0,1-3.28-5.75c.64-.37,6.44-3.55,11.2-1.89A7.66,7.66,0,0,1,258.1,732c2.8,7.06-.24,14.27-1.23,16.31-2.06,4.21-3.91,4.75-4.52,4.93A3.31,3.31,0,0,1,251.42,753.36Zm-.92-6.48h0Z"/><path class="cls-4" d="M173.46,881.45s13.92,21.84,26.47,18c6.59-2,13-23.57,15.65-24.34,8.4-2.45,24.41-6.44,34.25-24,9.18-16.41,7.18-25.17,4.81-29.2a5.57,5.57,0,0,1,.13-5.94c1.76-2.59,3.46-6.51,1.69-10.55a5.62,5.62,0,0,1,.05-4.46c2.33-5.43,6.65-17.93-1.75-20.39a5.63,5.63,0,0,0-6.12,2.09c-2.66,3.68-8.23,10.61-15.11,15-9.73,6.18-15.56,10.42-20.45,13.2-4.19,2.39-6.39-18.51-16.46-26.36-8.93-7-12-3.44-12.86-.17s4.63,4.58,7.79,20.15c3.69,18.23-.17,33.57-1.29,41.78C189,855.86,173.46,881.45,173.46,881.45Z"/><path d="M196.82,903.21c-13,0-24.73-17.76-26.15-20a3.3,3.3,0,0,1,0-3.49c4.21-7,15.35-26.62,16.35-34,.19-1.35.44-2.9.73-4.62,1.42-8.51,3.57-21.37.59-36-1.78-8.79-4.25-12.54-5.89-15-1.28-1.93-2.59-3.92-1.85-6.66a8.12,8.12,0,0,1,5.12-5.91c3.5-1.16,7.75.26,13,4.34,6.13,4.79,9.53,13.45,12,19.77.7,1.8,1.59,4.08,2.29,5.44,2.29-1.39,4.87-3.1,8-5.17s6.55-4.35,10.81-7.07c6.4-4.07,11.65-10.6,14.21-14.13a8.93,8.93,0,0,1,9.73-3.33,9.55,9.55,0,0,1,6.19,5.18c2.65,5.63.19,13.82-2.33,19.7a2.31,2.31,0,0,0-.06,1.82c1.86,4.24,1.16,9.12-2,13.74a2.24,2.24,0,0,0,0,2.4c3.14,5.34,4.85,15.3-4.77,32.49-10.1,18-26.41,22.74-35.17,25.26l-.36.11a66,66,0,0,0-3.18,6.35c-4.35,9.34-8.07,16.62-13.11,18.17A13.83,13.83,0,0,1,196.82,903.21Zm-19.44-21.87c4.23,5.95,14.09,17.22,21.57,14.93,2.63-.8,7-10.15,9.06-14.63,2.87-6.18,4.18-9,6.64-9.72l1.07-.3c8.4-2.43,22.45-6.48,31.22-22.14,8.52-15.22,6.69-22.76,4.85-25.9a8.77,8.77,0,0,1,.25-9.47c1.86-2.75,2.33-5.23,1.39-7.37a8.94,8.94,0,0,1,0-7.1c2.69-6.26,3.62-11.72,2.42-14.26a3,3,0,0,0-2.06-1.65,2.32,2.32,0,0,0-2.51.86c-2.83,3.92-8.69,11.18-16,15.84-4.23,2.68-7.71,5-10.7,7-3.93,2.61-7,4.67-9.89,6.3a4.48,4.48,0,0,1-3.79.36c-2.9-1-4.23-4.41-6.43-10s-5.21-13.29-9.91-17c-3.93-3.07-6.14-3.5-6.82-3.27-.32.1-.59.64-.76,1.16.17.33.58,1,.92,1.47,1.8,2.73,4.83,7.31,6.86,17.36,3.22,15.88,1,29.46-.55,38.45-.28,1.65-.52,3.13-.7,4.43C192.34,855.5,181.16,875,177.38,881.34Z"/><path d="M219.34,891.11l-42.17-26.87S120.17,956.42,77,987.7C56,1002.93,15.21,985,15.21,985S-23.94,1135.47,51.62,1157C177.48,1192.8,219.34,891.11,219.34,891.11Z"/><path class="cls-1" d="M73.3,995.39a3.31,3.31,0,0,1-2-6c45.17-33.77,101.34-126.7,101.9-127.63a3.31,3.31,0,1,1,5.67,3.41c-2.32,3.86-57.39,95-103.61,129.52A3.25,3.25,0,0,1,73.3,995.39Z"/><path class="cls-1" d="M69.71,1164.7c-1.69,0-3.37-.07-5.08-.22a3.31,3.31,0,0,1,.57-6.59C158.89,1166,210.49,918.73,215.66,892.7l-16.48-10.5a3.31,3.31,0,0,1,3.55-5.58l18.39,11.7a3.33,3.33,0,0,1,1.48,3.4C220.49,903,170.56,1164.7,69.71,1164.7Z"/><path class="cls-2" d="M1363.85,1687s-75.06-164.52-32-377.79c0,0,116.32,97.48,74.39,377.79Z"/><path class="cls-1" d="M1382.21,1673.17H1382a3.31,3.31,0,0,1-3.12-3.49c5.74-105-41.66-329.39-42.14-331.64a3.31,3.31,0,1,1,6.48-1.38c.48,2.26,48.06,227.48,42.27,333.39A3.31,3.31,0,0,1,1382.21,1673.17Z"/><path class="cls-4" d="M1439.36,1419.55s-96.71,174.71-38.54,250.31h31.12S1494.12,1533.29,1439.36,1419.55Z"/><path class="cls-2" d="M1415.35,1677.8a3.31,3.31,0,0,1-3.3-3.18c-2.81-72.22,23.76-253.73,24-255.56a3.31,3.31,0,1,1,6.55,1c-.27,1.82-26.75,182.72-24,254.33a3.31,3.31,0,0,1-3.18,3.44Z"/><path class="cls-2" d="M1431.94,1673.17h-31.12a3.3,3.3,0,0,1-2.62-1.29c-58.82-76.44,34.27-246.72,38.26-253.94a3.32,3.32,0,0,1,5.88.17c54.8,113.82-6.76,251.75-7.39,253.12A3.29,3.29,0,0,1,1431.94,1673.17Zm-29.46-6.62h27.28c7-16.66,54.68-137,9.4-239.54C1423.31,1457.69,1354.08,1600.61,1402.48,1666.55Z"/><path class="cls-4" d="M1254.73,1484.68s82.38,28.1,112.21,194.5h-32.4S1266.92,1587.8,1254.73,1484.68Z"/><path class="cls-2" d="M1349.23,1677.8A3.31,3.31,0,0,1,1346,1675c-12.22-73.84-65.12-148.25-65.65-149a3.31,3.31,0,1,1,5.37-3.86c.55.75,54.35,76.42,66.81,151.77a3.31,3.31,0,0,1-2.72,3.81A3.27,3.27,0,0,1,1349.23,1677.8Z"/><path class="cls-2" d="M1299,1666h174l3.9,82.33a35.39,35.39,0,0,1-35.35,37.07h-99.41a43.26,43.26,0,0,1-43.26-43.3Z"/><polygon class="cls-4" points="1743.11 1684.55 1737.86 1734.57 1704.04 1738.53 1704.04 1679.22 1743.11 1684.55"/><path d="M1704,1741.84a3.28,3.28,0,0,1-3.3-3.31v-59.31a3.31,3.31,0,0,1,3.75-3.28l39.07,5.33a3.3,3.3,0,0,1,2.85,3.62l-5.25,50a3.32,3.32,0,0,1-2.91,2.95l-33.82,4A2.55,2.55,0,0,1,1704,1741.84Zm3.31-58.83v51.8l27.5-3.22,4.64-44.2Z"/><path class="cls-3" d="M1698.71,1825.62a236.62,236.62,0,0,0,64.34,0A15.13,15.13,0,0,0,1775.7,1807c-6-24.28-16.27-70.35-33.94-91.69l-4.39,11.58-6.06-10.91a5.37,5.37,0,0,0-4-2.71l-13.28-1.69a5.38,5.38,0,0,0-5.93,4.22l-2.11,10-4.63-13.19-15.45,96A15.09,15.09,0,0,0,1698.71,1825.62Z"/><path d="M1730.68,1831.11a233.18,233.18,0,0,1-32.43-2.22h0a18.44,18.44,0,0,1-15.64-20.64l15.46-96.1a3.31,3.31,0,0,1,6.39-.58l.78,2.22a8.75,8.75,0,0,1,9.19-5.48l13.28,1.68a8.73,8.73,0,0,1,6.49,4.39l2.6,4.68,1.86-4.92a3.31,3.31,0,0,1,5.65-.93c17,20.48,27.2,62.61,33.32,87.78l1.28,5.23a18.44,18.44,0,0,1-15.4,22.65A240.59,240.59,0,0,1,1730.68,1831.11Zm-31.51-8.77a232.53,232.53,0,0,0,63.43,0,11.84,11.84,0,0,0,8.19-5.09,11.6,11.6,0,0,0,1.69-9.42l-1.28-5.25c-5.54-22.76-14.53-59.71-28.49-80.41l-2.25,5.93a3.3,3.3,0,0,1-6,.43l-6.07-10.9a2,2,0,0,0-1.54-1l-13.27-1.68a2.06,2.06,0,0,0-2.28,1.62l-2.11,10a3.31,3.31,0,0,1-6.36.42l-.31-.89-13.38,83.14a11.79,11.79,0,0,0,10,13.13Z"/><path d="M1737.91,1815a167.13,167.13,0,0,1-42-5.38,3.31,3.31,0,1,1,1.81-6.36c.35.1,34.74,9.7,67.51,2.24a3.31,3.31,0,1,1,1.47,6.45A130.23,130.23,0,0,1,1737.91,1815Z"/><path d="M1746,1777.82h-.11l-31.7-1a3.31,3.31,0,1,1,.22-6.62l31.7,1a3.31,3.31,0,0,1-.11,6.61Z"/><polygon class="cls-4" points="1584.69 1657.91 1579.62 1730.91 1538.92 1730.91 1537.03 1657.91 1584.69 1657.91"/><path d="M1579.62,1734.22h-40.7a3.31,3.31,0,0,1-3.31-3.22l-1.89-73a3.31,3.31,0,0,1,3.31-3.4h47.66a3.33,3.33,0,0,1,2.42,1.05,3.37,3.37,0,0,1,.88,2.49l-5.07,73A3.31,3.31,0,0,1,1579.62,1734.22Zm-37.48-6.62h34.39l4.61-66.38h-40.72Z"/><path class="cls-3" d="M1590.25,1772.12a14.69,14.69,0,0,1-11.34,14.53c-23.4,5.45-76.11,17.57-91.14,19.81-19.52,2.91-43.5-3.07-53.81-14.48s23.09-38.67,38.94-48.58c23.55-14.73,46.17-43.85,55.65-45.16s27.19,26.21,27.19,26.21l29-12.15S1589.73,1737.1,1590.25,1772.12Z"/><path d="M1477.62,1810.5c-18.29,0-37.16-6.4-46.11-16.3a11.13,11.13,0,0,1-2.66-9.29c2.23-16,32-37.9,42.3-44.32,11.46-7.17,22.63-17.77,32.5-27.13,11.9-11.3,18.91-17.73,24.45-18.49,9.73-1.37,23.16,16.82,28.9,25.37l26.41-11.09a3.28,3.28,0,0,1,2.82.12,3.31,3.31,0,0,1,1.7,2.27c0,.25,5.11,25.5,5.63,60.43h0a18.11,18.11,0,0,1-13.9,17.81c-22.4,5.21-76.13,17.58-91.41,19.86A73.28,73.28,0,0,1,1477.62,1810.5Zm51.7-109a1.73,1.73,0,0,0-.32,0c-3.7.51-12.39,8.75-20.8,16.73-10.09,9.57-21.52,20.42-33.54,27.94-15.49,9.69-37.75,28.85-39.26,39.62a4.47,4.47,0,0,0,1,3.94c9.22,10.21,32,16.23,50.86,13.43,15-2.24,68.56-14.56,90.88-19.76a11.43,11.43,0,0,0,8.78-11.26h0a377.74,377.74,0,0,0-4.78-55.22L1557,1727.5a3.31,3.31,0,0,1-4.06-1.26C1545.14,1714.1,1534,1701.5,1529.32,1701.5Z"/><path d="M1478,1797.06c-15.11,0-28.44-2.87-37-10.6a3.31,3.31,0,1,1,4.43-4.91c29.71,26.81,132-14.52,133-14.94a3.31,3.31,0,0,1,2.5,6.13C1577.65,1774.06,1520.7,1797.06,1478,1797.06Z"/><path d="M1523.08,1752.89a3.3,3.3,0,0,1-2.22-.85l-20.7-18.67a3.31,3.31,0,0,1,4.43-4.92l20.7,18.67a3.31,3.31,0,0,1-2.21,5.77Z"/><path d="M1754.65,1182s12.61,228.21,19.21,307-15.43,205.41-15.43,205.41l-62.82-3.3s-4.31-154-9-196.72c0,0-26.53-58-34.4-109.66s-34.65-133.35-34.65-133.35-21.76,407.55-23.86,439.57c0,0-49.26,2.19-66.92-8.92,0,0-31.29-148.6-26.8-229.46s-.44-281.73-.44-281.73Z"/><path class="cls-4" d="M1717.4,1497.68h-19.2a3.31,3.31,0,1,1,0-6.62h19.2a3.31,3.31,0,0,1,0,6.62Z"/><path class="cls-4" d="M1561.41,1616.21a3.3,3.3,0,0,1-3.3-3.25c-.67-36.23-42.61-104.73-43-105.41a3.31,3.31,0,1,1,5.64-3.48c1.76,2.87,43.31,70.73,44,108.77a3.3,3.3,0,0,1-3.25,3.37Z"/><path class="cls-4" d="M1479.67,817.05c-4.57-.36-27,45.62-97.27,43.69s-126.61-80.54-126.61-80.54-24.26-40.91-42.67-55.7-21.3-16.74-21.3-16.74a15,15,0,0,0,0,16.74c5.77,9,21.71,26,21.71,26s-17.56,9.64-9.64,29.71c9.1,23.1,34.77,21.24,34.77,21.24s52.09,230.6,267.35,121Z"/><path d="M1399.26,955.32A142.63,142.63,0,0,1,1337.92,942c-71.41-33.52-97.56-121.11-101.84-137.26-7.38-.29-27.26-3-35.27-23.32-6-15.25,1.13-26.18,7.68-31.5-4.82-5.26-15-16.6-19.46-23.64a18.23,18.23,0,0,1,.14-20.51,3.32,3.32,0,0,1,4.5-.75c.12.08,3.21,2.2,21.52,16.9s41.56,53.43,43.37,56.46c2.4,3.29,57.34,77.22,123.93,79,54.19,1.48,78.81-26,89.32-37.7,3.81-4.24,5.53-6.23,8.12-6a3.32,3.32,0,0,1,3,2.5l26.33,105.41a3.32,3.32,0,0,1-1.71,3.75C1468.37,945.34,1432.17,955.32,1399.26,955.32ZM1238.65,798.13a3.32,3.32,0,0,1,3.24,2.58c.22,1,23.41,99.91,98.87,135.32,44.79,21,99.07,15.84,161.39-15.33L1477.75,823c-.33.38-.68.76-1,1.13-11.13,12.41-37.2,41.44-94.43,39.9-71.07-1.95-126.87-78.65-129.21-81.92,0-.08-.11-.15-.16-.24-.24-.4-24.17-40.56-41.9-54.81-9.76-7.84-15.12-12-18-14.25a11.67,11.67,0,0,0,1.56,9.89c5.54,8.69,21.17,25.33,21.33,25.5a3.31,3.31,0,0,1-.82,5.17c-.6.33-14.87,8.56-8.15,25.6,8.07,20.49,30.51,19.21,31.46,19.15Z"/><path class="cls-3" d="M1827.85,922.46s-21.08-136.07-95.56-169.55-175.24-28.82-203-12.1-100.21,92.31-100.21,92.31l64,89.34s-14.63,240.5-3.06,304c0,0,71.19,8.31,101.38-3.58s129.48-28.56,176.94-6.75l-8.62-304.49Z"/><path d="M1540.16,1232.61a484.59,484.59,0,0,1-50.56-2.87,3.31,3.31,0,0,1-2.87-2.69c-11.21-61.56,1.73-283.29,3-303.62L1426.36,835a3.31,3.31,0,0,1,.3-4.21c3-3.1,73-76.1,100.89-92.86,30.21-18.17,132.31-21.24,206.09,11.92,75.26,33.83,96.61,166.44,97.48,172.07a3.31,3.31,0,0,1-3.79,3.77l-64.22-10.21,8.51,300.5a3.3,3.3,0,0,1-4.69,3.1c-45.1-20.71-143.23-5.43-174.34,6.82C1579.47,1231.11,1559.24,1232.61,1540.16,1232.61Zm-47.33-9.18c12.71,1.3,71.36,6.58,97.33-3.64,29.36-11.57,124.43-28,174.7-8.71l-8.48-299.36a3.3,3.3,0,0,1,3.83-3.36l63.57,10.1c-4.46-23.67-28.42-133.57-92.85-162.53-74.13-33.32-174-27.88-200-12.28-24.61,14.8-86,77.77-97.62,89.78l62.39,87.11a3.26,3.26,0,0,1,.61,2.12C1496.21,925,1482.24,1157.53,1492.83,1223.43Z"/><path d="M1702.89,1156.67a2.9,2.9,0,0,1-.58-.05c-116.13-20.52-150.16-101.53-150.49-102.35a3.31,3.31,0,0,1,6.14-2.48c.31.78,33.15,78.46,145.5,98.31a3.31,3.31,0,0,1-.57,6.57Z"/><polygon points="1498.44 1017.57 1643.37 1017.57 1597.98 855.68 1453.05 855.68 1498.44 1017.57"/><path class="cls-4" d="M1815.07,923l-73.35-32.78s10.33,124.28-138.07,66.89a105.87,105.87,0,0,0,4.7-34.63c-.78-18.65-11.94-.6-13.5,14.56s-36.4,9-57.34,3-48.42-2.06,0,24.65,59,14.79,59,14.79,61.84,86.53,138.77,68.15C1830,1025,1815.07,923,1815.07,923Z"/><path d="M1713.86,1053.48c-60.52,0-108.34-57-118.16-69.62-6.27,2.64-22.52,4.29-59.79-16.26-22.31-12.31-31-20.84-28.18-27.67,3.44-8.37,21.58-5.66,30.69-3.06,19.66,5.61,43,8.93,50.74,3.67a5,5,0,0,0,2.4-3.86c.93-9,6.59-25.71,13.92-25.47,5.72.17,6.06,8.41,6.17,11.11a109.51,109.51,0,0,1-3.94,32.77c47.48,17.87,82.83,18.47,105.11,1.81,29-21.68,25.64-66,25.6-66.43a3.31,3.31,0,0,1,4.65-3.29L1816.42,920a3.31,3.31,0,0,1,1.93,2.55c.15,1,14.19,105.3-82.27,128.35A95.58,95.58,0,0,1,1713.86,1053.48Zm-117.28-77.36h.2a3.28,3.28,0,0,1,2.45,1.45c.61.85,61.46,84.49,135.32,66.85,83.88-20,78.79-105.73,77.45-119.18l-66.8-29.86c0,13.31-2.59,47.49-28.42,66.82-24.67,18.45-63.13,17.77-114.33-2a3.31,3.31,0,0,1-1.93-4.16A103.46,103.46,0,0,0,1605,922.6a22.75,22.75,0,0,0-.4-3.74c-2.26,2.9-5.68,10.61-6.5,18.5a11.67,11.67,0,0,1-5.26,8.66c-12.8,8.66-46.31.06-56.28-2.79-12.08-3.45-21.74-2.44-22.76-.76,0,0-.38,5.18,25.27,19.33,44.19,24.37,55,15.46,55.08,15.36A3.12,3.12,0,0,1,1596.58,976.12Z"/><path d="M1619.28,690.9c6.34,5.8,18.72,12.88,28.42,8,7.22-3.63,11.25-13,11-23.84,3.34.28,7.72,0,10.85-2.72,4.81-4.26,3.91-12.09,3.72-17.23-.87-23.74,12.93-27.38,9.55-43.5-2.65-12.66-12.6-20.2-14.46-21.62-9.39-7.12-15.75-4.82-31.53-9-26.57-6.95-27.42-18.4-44.92-18.46-1,0-24.83.26-32.92,16.72-6.57,13.38,1.11,29.65,9,38.2,10.28,11.06,17.66,5.6,28,14.88C1614.14,648.66,1600.46,673.67,1619.28,690.9Z"/><path class="cls-4" d="M1566.26,648.53l1-.9c5.26-4.53,10.73-9.79,12.13-16.59,5.93-28.9,32.4-39.39,33.62-12.85.31,6.69,24.77,6.35,21.86,13.38-7.56,18.32-7.73,13.39,2.95,20.14a9.38,9.38,0,0,1,3.54.85c5.48,2.55,7.42,10,4.33,16.6a14.18,14.18,0,0,1-8.69,7.79V705.9a26.72,26.72,0,0,0,16.61,24.74l9.78,4s-45.59,29.75-91.86-2.92l6.17-2.77a31.14,31.14,0,0,0,18.39-27.45l0-5.66a24.07,24.07,0,0,1-8.9-.74c-13-3.76-17.24-18.68-15-37.22l-5.27-2.83A4,4,0,0,1,1566.26,648.53Z"/><path d="M1618.33,750.24c-14.8,0-31.73-3.86-48.66-15.81a3.31,3.31,0,0,1,.55-5.73l6.18-2.77a28,28,0,0,0,16.44-24.53v-2.14a25.61,25.61,0,0,1-6.49-1c-13.19-3.84-19.56-17.83-17.64-38.53l-3.31-1.78A7.29,7.29,0,0,1,1564.1,646l1.05-.9c4.71-4.07,9.84-8.9,11-14.75,4.1-20,17.36-31.54,27.31-30.73,2.82.22,12.06,2.2,12.86,18.23.92,1.21,6.15,2.68,9,3.48,5.8,1.62,10.8,3,12.55,6.61a5.77,5.77,0,0,1,.08,4.86c-1.1,2.68-2,4.86-2.83,6.66a58.78,58.78,0,0,0-2.25,5.59c.45.28,1.18.67,1.84,1,1.14.61,2.52,1.35,4.19,2.38a12.17,12.17,0,0,1,3.88,1.08,13.26,13.26,0,0,1,7.18,8.94,18.52,18.52,0,0,1-9.63,20.73V705.9a23.34,23.34,0,0,0,14.55,21.68l9.78,4a3.32,3.32,0,0,1,.56,5.84A94.79,94.79,0,0,1,1618.33,750.24Zm-39.9-18c33.12,20.25,64.63,9,77.35,2.81l-3.37-1.38a29.93,29.93,0,0,1-18.67-27.8V677a3.3,3.3,0,0,1,2.4-3.18,10.88,10.88,0,0,0,6.6-6,11.33,11.33,0,0,0,.85-7.59,6.81,6.81,0,0,0-3.57-4.61,6.11,6.11,0,0,0-2.29-.54,3.26,3.26,0,0,1-1.63-.51c-1.8-1.13-3.28-1.93-4.48-2.57-7.38-3.94-6.16-6.75-2.55-15.08.74-1.69,1.62-3.72,2.64-6.19-1.29-1-5.53-2.2-8.15-2.94-6.66-1.87-13.55-3.8-13.8-9.39-.16-3.49-1.14-11.65-6.78-12.09-6.09-.42-16.78,8.32-20.3,25.46-1.62,7.89-7.67,13.65-13.21,18.43l-1,.9h0a.63.63,0,0,0-.22.58.64.64,0,0,0,.34.52l5.27,2.83a3.3,3.3,0,0,1,1.72,3.31c-1,8.7-1.86,29.41,12.68,33.64a20.79,20.79,0,0,0,7.69.63,3.3,3.3,0,0,1,3.6,3.32l0,5.66A34.68,34.68,0,0,1,1579.11,732Zm-12.17-83.74h0Z"/><path d="M1596.19,699.15a3.31,3.31,0,0,1-.5-6.58,35.06,35.06,0,0,0,23.66-15.15,3.31,3.31,0,0,1,5.74,3.3,41.14,41.14,0,0,1-28.39,18.39A2.92,2.92,0,0,1,1596.19,699.15Z"/></g></g></g></svg>